<mxfile host="app.diagrams.net" modified="2022-02-17T01:34:44.914Z" agent="5.0 (Macintosh; Intel Mac OS X 10_15_7) AppleWebKit/537.36 (KHTML, like Gecko) Chrome/98.0.4758.102 Safari/537.36" etag="FIUtysrjytMdvoCtBp8W" version="16.5.6" type="github">
  <diagram id="x6sFYiA4rkCTneI-RJo7" name="Page-1">
    <mxGraphModel dx="2543" dy="1040" grid="1" gridSize="10" guides="1" tooltips="1" connect="1" arrows="1" fold="1" page="1" pageScale="1" pageWidth="827" pageHeight="1169" math="0" shadow="0">
      <root>
        <mxCell id="0" />
        <mxCell id="1" parent="0" />
        <mxCell id="sLF7BMZyt9MLRBjVb3fy-2" value="" style="rounded=0;whiteSpace=wrap;html=1;" vertex="1" parent="1">
          <mxGeometry x="-190" y="10" width="1130" height="1910" as="geometry" />
        </mxCell>
        <mxCell id="pNtmwsAvhv5jmCJUX1sL-3" value="" style="edgeStyle=orthogonalEdgeStyle;rounded=0;orthogonalLoop=1;jettySize=auto;html=1;" parent="1" source="pNtmwsAvhv5jmCJUX1sL-1" target="pNtmwsAvhv5jmCJUX1sL-2" edge="1">
          <mxGeometry relative="1" as="geometry" />
        </mxCell>
        <mxCell id="pNtmwsAvhv5jmCJUX1sL-1" value="__objc_msgSend_uncached" style="rounded=1;whiteSpace=wrap;html=1;fillColor=#d5e8d4;strokeColor=#82b366;" parent="1" vertex="1">
          <mxGeometry x="50" y="80" width="190" height="60" as="geometry" />
        </mxCell>
        <mxCell id="pNtmwsAvhv5jmCJUX1sL-5" value="" style="edgeStyle=orthogonalEdgeStyle;rounded=0;orthogonalLoop=1;jettySize=auto;html=1;" parent="1" source="pNtmwsAvhv5jmCJUX1sL-2" target="pNtmwsAvhv5jmCJUX1sL-4" edge="1">
          <mxGeometry relative="1" as="geometry" />
        </mxCell>
        <mxCell id="pNtmwsAvhv5jmCJUX1sL-2" value="MethodTableLookup" style="whiteSpace=wrap;html=1;fillColor=#d5e8d4;strokeColor=#82b366;rounded=1;" parent="1" vertex="1">
          <mxGeometry x="320" y="80" width="130" height="60" as="geometry" />
        </mxCell>
        <mxCell id="pNtmwsAvhv5jmCJUX1sL-9" value="" style="edgeStyle=orthogonalEdgeStyle;rounded=0;orthogonalLoop=1;jettySize=auto;html=1;" parent="1" source="pNtmwsAvhv5jmCJUX1sL-4" target="pNtmwsAvhv5jmCJUX1sL-8" edge="1">
          <mxGeometry relative="1" as="geometry" />
        </mxCell>
        <mxCell id="pNtmwsAvhv5jmCJUX1sL-4" value="lookUpImpOrForward" style="whiteSpace=wrap;html=1;fillColor=#d5e8d4;strokeColor=#82b366;rounded=1;" parent="1" vertex="1">
          <mxGeometry x="315" y="220" width="140" height="60" as="geometry" />
        </mxCell>
        <mxCell id="pNtmwsAvhv5jmCJUX1sL-11" value="YES" style="edgeStyle=orthogonalEdgeStyle;rounded=0;orthogonalLoop=1;jettySize=auto;html=1;" parent="1" source="pNtmwsAvhv5jmCJUX1sL-8" target="pNtmwsAvhv5jmCJUX1sL-10" edge="1">
          <mxGeometry relative="1" as="geometry" />
        </mxCell>
        <mxCell id="pNtmwsAvhv5jmCJUX1sL-13" value="" style="edgeStyle=orthogonalEdgeStyle;rounded=0;orthogonalLoop=1;jettySize=auto;html=1;" parent="1" source="pNtmwsAvhv5jmCJUX1sL-8" target="pNtmwsAvhv5jmCJUX1sL-12" edge="1">
          <mxGeometry relative="1" as="geometry" />
        </mxCell>
        <mxCell id="pNtmwsAvhv5jmCJUX1sL-14" value="NO" style="edgeLabel;html=1;align=center;verticalAlign=middle;resizable=0;points=[];" parent="pNtmwsAvhv5jmCJUX1sL-13" vertex="1" connectable="0">
          <mxGeometry x="-0.2267" relative="1" as="geometry">
            <mxPoint as="offset" />
          </mxGeometry>
        </mxCell>
        <mxCell id="pNtmwsAvhv5jmCJUX1sL-8" value="!cls-&amp;gt;isInitialized())&lt;br&gt;判断是否未加载" style="rhombus;whiteSpace=wrap;html=1;fillColor=#d5e8d4;strokeColor=#82b366;rounded=1;" parent="1" vertex="1">
          <mxGeometry x="253.75" y="350" width="262.5" height="80" as="geometry" />
        </mxCell>
        <mxCell id="sLF7BMZyt9MLRBjVb3fy-3" style="edgeStyle=orthogonalEdgeStyle;rounded=0;orthogonalLoop=1;jettySize=auto;html=1;entryX=0;entryY=0.5;entryDx=0;entryDy=0;" edge="1" parent="1" source="pNtmwsAvhv5jmCJUX1sL-10" target="pNtmwsAvhv5jmCJUX1sL-12">
          <mxGeometry relative="1" as="geometry">
            <Array as="points">
              <mxPoint x="110" y="545" />
            </Array>
          </mxGeometry>
        </mxCell>
        <mxCell id="pNtmwsAvhv5jmCJUX1sL-10" value="behavior |=&amp;nbsp;LOOKUP_NOCACHE&lt;br&gt;在done判断是否缓存方法" style="whiteSpace=wrap;html=1;fillColor=#d5e8d4;strokeColor=#82b366;rounded=1;" parent="1" vertex="1">
          <mxGeometry x="30" y="360" width="160" height="60" as="geometry" />
        </mxCell>
        <mxCell id="pNtmwsAvhv5jmCJUX1sL-16" value="" style="edgeStyle=orthogonalEdgeStyle;rounded=0;orthogonalLoop=1;jettySize=auto;html=1;" parent="1" source="pNtmwsAvhv5jmCJUX1sL-12" target="pNtmwsAvhv5jmCJUX1sL-15" edge="1">
          <mxGeometry relative="1" as="geometry" />
        </mxCell>
        <mxCell id="pNtmwsAvhv5jmCJUX1sL-12" value="checkIsKnownClass(cls)&lt;br&gt;判断cls是否是否已经注册" style="rhombus;whiteSpace=wrap;html=1;fillColor=#d5e8d4;strokeColor=#82b366;rounded=1;" parent="1" vertex="1">
          <mxGeometry x="253.75" y="505" width="262.5" height="80" as="geometry" />
        </mxCell>
        <mxCell id="pNtmwsAvhv5jmCJUX1sL-18" value="" style="edgeStyle=orthogonalEdgeStyle;rounded=0;orthogonalLoop=1;jettySize=auto;html=1;" parent="1" source="pNtmwsAvhv5jmCJUX1sL-15" target="pNtmwsAvhv5jmCJUX1sL-17" edge="1">
          <mxGeometry relative="1" as="geometry" />
        </mxCell>
        <mxCell id="pNtmwsAvhv5jmCJUX1sL-15" value="realizeAndInitializeIfNeeded_locked&lt;br&gt;懒加载类需要加载类，并递归加载父类，元类，调用initialize方法" style="whiteSpace=wrap;html=1;fillColor=#d5e8d4;strokeColor=#82b366;rounded=1;" parent="1" vertex="1">
          <mxGeometry x="253.75" y="675" width="262.5" height="60" as="geometry" />
        </mxCell>
        <mxCell id="pNtmwsAvhv5jmCJUX1sL-20" value="" style="edgeStyle=orthogonalEdgeStyle;rounded=0;orthogonalLoop=1;jettySize=auto;html=1;" parent="1" source="pNtmwsAvhv5jmCJUX1sL-17" target="pNtmwsAvhv5jmCJUX1sL-19" edge="1">
          <mxGeometry relative="1" as="geometry" />
        </mxCell>
        <mxCell id="pNtmwsAvhv5jmCJUX1sL-25" value="YES" style="edgeLabel;html=1;align=center;verticalAlign=middle;resizable=0;points=[];" parent="pNtmwsAvhv5jmCJUX1sL-20" vertex="1" connectable="0">
          <mxGeometry x="-0.1" y="2" relative="1" as="geometry">
            <mxPoint as="offset" />
          </mxGeometry>
        </mxCell>
        <mxCell id="pNtmwsAvhv5jmCJUX1sL-27" value="" style="edgeStyle=orthogonalEdgeStyle;rounded=0;orthogonalLoop=1;jettySize=auto;html=1;" parent="1" source="pNtmwsAvhv5jmCJUX1sL-17" target="pNtmwsAvhv5jmCJUX1sL-26" edge="1">
          <mxGeometry relative="1" as="geometry" />
        </mxCell>
        <mxCell id="pNtmwsAvhv5jmCJUX1sL-28" value="NO" style="edgeLabel;html=1;align=center;verticalAlign=middle;resizable=0;points=[];" parent="pNtmwsAvhv5jmCJUX1sL-27" vertex="1" connectable="0">
          <mxGeometry x="-0.2211" y="1" relative="1" as="geometry">
            <mxPoint as="offset" />
          </mxGeometry>
        </mxCell>
        <mxCell id="pNtmwsAvhv5jmCJUX1sL-17" value="isConstantOptimizedCache,通过_bucketsAndMaybeMask &amp;amp; preoptBucketsMarker（=1)判断是否有共享缓存" style="rhombus;whiteSpace=wrap;html=1;fillColor=#d5e8d4;strokeColor=#82b366;rounded=1;" parent="1" vertex="1">
          <mxGeometry x="240" y="800" width="290" height="90" as="geometry" />
        </mxCell>
        <mxCell id="pNtmwsAvhv5jmCJUX1sL-24" value="" style="edgeStyle=orthogonalEdgeStyle;rounded=0;orthogonalLoop=1;jettySize=auto;html=1;" parent="1" source="pNtmwsAvhv5jmCJUX1sL-19" target="pNtmwsAvhv5jmCJUX1sL-23" edge="1">
          <mxGeometry relative="1" as="geometry" />
        </mxCell>
        <mxCell id="pNtmwsAvhv5jmCJUX1sL-19" value="cache_getImp" style="whiteSpace=wrap;html=1;fillColor=#d5e8d4;strokeColor=#82b366;rounded=1;" parent="1" vertex="1">
          <mxGeometry x="590" y="815" width="120" height="60" as="geometry" />
        </mxCell>
        <mxCell id="pNtmwsAvhv5jmCJUX1sL-47" style="edgeStyle=orthogonalEdgeStyle;rounded=0;orthogonalLoop=1;jettySize=auto;html=1;entryX=0;entryY=0.5;entryDx=0;entryDy=0;fillColor=#0050ef;strokeColor=#001DBC;" parent="1" source="pNtmwsAvhv5jmCJUX1sL-23" target="pNtmwsAvhv5jmCJUX1sL-40" edge="1">
          <mxGeometry relative="1" as="geometry">
            <mxPoint x="40" y="1530" as="targetPoint" />
            <Array as="points">
              <mxPoint x="550" y="990" />
              <mxPoint x="550" y="1050" />
              <mxPoint x="-50" y="1050" />
              <mxPoint x="-50" y="1520" />
            </Array>
          </mxGeometry>
        </mxCell>
        <mxCell id="pNtmwsAvhv5jmCJUX1sL-48" value="YES" style="edgeLabel;html=1;align=center;verticalAlign=middle;resizable=0;points=[];" parent="pNtmwsAvhv5jmCJUX1sL-47" vertex="1" connectable="0">
          <mxGeometry x="-0.7437" relative="1" as="geometry">
            <mxPoint as="offset" />
          </mxGeometry>
        </mxCell>
        <mxCell id="sLF7BMZyt9MLRBjVb3fy-1" style="edgeStyle=orthogonalEdgeStyle;rounded=0;orthogonalLoop=1;jettySize=auto;html=1;entryX=1;entryY=0.5;entryDx=0;entryDy=0;fillColor=#f8cecc;strokeColor=#b85450;" edge="1" parent="1" source="pNtmwsAvhv5jmCJUX1sL-23" target="pNtmwsAvhv5jmCJUX1sL-67">
          <mxGeometry relative="1" as="geometry">
            <Array as="points">
              <mxPoint x="650" y="1150" />
              <mxPoint x="500" y="1150" />
              <mxPoint x="500" y="1400" />
            </Array>
          </mxGeometry>
        </mxCell>
        <mxCell id="pNtmwsAvhv5jmCJUX1sL-23" value="imp是否存在" style="rhombus;whiteSpace=wrap;html=1;fillColor=#d5e8d4;strokeColor=#82b366;rounded=1;" parent="1" vertex="1">
          <mxGeometry x="600" y="950" width="100" height="80" as="geometry" />
        </mxCell>
        <mxCell id="pNtmwsAvhv5jmCJUX1sL-30" value="" style="edgeStyle=orthogonalEdgeStyle;rounded=0;orthogonalLoop=1;jettySize=auto;html=1;" parent="1" source="pNtmwsAvhv5jmCJUX1sL-26" target="pNtmwsAvhv5jmCJUX1sL-29" edge="1">
          <mxGeometry relative="1" as="geometry" />
        </mxCell>
        <mxCell id="pNtmwsAvhv5jmCJUX1sL-26" value="meth = getMethodNoSuper_nolock&lt;br&gt;二分查找法查找方法" style="whiteSpace=wrap;html=1;fillColor=#d5e8d4;strokeColor=#82b366;rounded=1;" parent="1" vertex="1">
          <mxGeometry x="277.5" y="960" width="215" height="60" as="geometry" />
        </mxCell>
        <mxCell id="pNtmwsAvhv5jmCJUX1sL-32" value="" style="edgeStyle=orthogonalEdgeStyle;rounded=0;orthogonalLoop=1;jettySize=auto;html=1;" parent="1" source="pNtmwsAvhv5jmCJUX1sL-29" target="pNtmwsAvhv5jmCJUX1sL-31" edge="1">
          <mxGeometry relative="1" as="geometry">
            <Array as="points">
              <mxPoint x="320" y="1129" />
              <mxPoint x="320" y="1080" />
              <mxPoint x="129" y="1080" />
            </Array>
          </mxGeometry>
        </mxCell>
        <mxCell id="pNtmwsAvhv5jmCJUX1sL-33" value="YES" style="edgeLabel;html=1;align=center;verticalAlign=middle;resizable=0;points=[];" parent="pNtmwsAvhv5jmCJUX1sL-32" vertex="1" connectable="0">
          <mxGeometry x="-0.5724" y="2" relative="1" as="geometry">
            <mxPoint x="-78" y="-3" as="offset" />
          </mxGeometry>
        </mxCell>
        <mxCell id="pNtmwsAvhv5jmCJUX1sL-50" value="" style="edgeStyle=orthogonalEdgeStyle;rounded=0;orthogonalLoop=1;jettySize=auto;html=1;" parent="1" source="pNtmwsAvhv5jmCJUX1sL-29" target="pNtmwsAvhv5jmCJUX1sL-49" edge="1">
          <mxGeometry relative="1" as="geometry" />
        </mxCell>
        <mxCell id="pNtmwsAvhv5jmCJUX1sL-29" value="meth 是否存在" style="rhombus;whiteSpace=wrap;html=1;fillColor=#d5e8d4;strokeColor=#82b366;rounded=1;" parent="1" vertex="1">
          <mxGeometry x="332.5" y="1089" width="105" height="80" as="geometry" />
        </mxCell>
        <mxCell id="pNtmwsAvhv5jmCJUX1sL-35" value="" style="edgeStyle=orthogonalEdgeStyle;rounded=0;orthogonalLoop=1;jettySize=auto;html=1;strokeColor=#000000;" parent="1" source="pNtmwsAvhv5jmCJUX1sL-31" target="pNtmwsAvhv5jmCJUX1sL-34" edge="1">
          <mxGeometry relative="1" as="geometry" />
        </mxCell>
        <mxCell id="pNtmwsAvhv5jmCJUX1sL-31" value="跳转到 done 流程" style="whiteSpace=wrap;html=1;fillColor=#d5e8d4;strokeColor=#82b366;rounded=1;" parent="1" vertex="1">
          <mxGeometry x="68.75" y="1099" width="120" height="60" as="geometry" />
        </mxCell>
        <mxCell id="pNtmwsAvhv5jmCJUX1sL-38" value="" style="edgeStyle=orthogonalEdgeStyle;rounded=0;orthogonalLoop=1;jettySize=auto;html=1;" parent="1" source="pNtmwsAvhv5jmCJUX1sL-34" target="pNtmwsAvhv5jmCJUX1sL-37" edge="1">
          <mxGeometry relative="1" as="geometry" />
        </mxCell>
        <mxCell id="pNtmwsAvhv5jmCJUX1sL-39" value="YES" style="edgeLabel;html=1;align=center;verticalAlign=middle;resizable=0;points=[];" parent="pNtmwsAvhv5jmCJUX1sL-38" vertex="1" connectable="0">
          <mxGeometry x="-0.3051" y="1" relative="1" as="geometry">
            <mxPoint x="-1" y="2" as="offset" />
          </mxGeometry>
        </mxCell>
        <mxCell id="pNtmwsAvhv5jmCJUX1sL-44" style="edgeStyle=orthogonalEdgeStyle;rounded=0;orthogonalLoop=1;jettySize=auto;html=1;entryX=0;entryY=0.5;entryDx=0;entryDy=0;" parent="1" source="pNtmwsAvhv5jmCJUX1sL-34" target="pNtmwsAvhv5jmCJUX1sL-40" edge="1">
          <mxGeometry relative="1" as="geometry">
            <Array as="points">
              <mxPoint x="-20" y="1266" />
              <mxPoint x="-20" y="1520" />
            </Array>
          </mxGeometry>
        </mxCell>
        <mxCell id="pNtmwsAvhv5jmCJUX1sL-46" value="NO" style="edgeLabel;html=1;align=center;verticalAlign=middle;resizable=0;points=[];" parent="pNtmwsAvhv5jmCJUX1sL-44" vertex="1" connectable="0">
          <mxGeometry x="-0.3137" y="1" relative="1" as="geometry">
            <mxPoint y="24" as="offset" />
          </mxGeometry>
        </mxCell>
        <mxCell id="pNtmwsAvhv5jmCJUX1sL-34" value="behavior &amp;amp; LOOKUP_NOCACHE) == 0&lt;br&gt;判断是否需要缓存" style="rhombus;whiteSpace=wrap;html=1;fillColor=#d5e8d4;strokeColor=#82b366;rounded=1;" parent="1" vertex="1">
          <mxGeometry x="48.75" y="1210" width="160" height="111" as="geometry" />
        </mxCell>
        <mxCell id="pNtmwsAvhv5jmCJUX1sL-41" value="" style="edgeStyle=orthogonalEdgeStyle;rounded=0;orthogonalLoop=1;jettySize=auto;html=1;" parent="1" source="pNtmwsAvhv5jmCJUX1sL-37" edge="1">
          <mxGeometry relative="1" as="geometry">
            <mxPoint x="128.75" y="1470" as="targetPoint" />
          </mxGeometry>
        </mxCell>
        <mxCell id="pNtmwsAvhv5jmCJUX1sL-37" value="log_and_fill_cache&lt;br&gt;将sel,imp缓存到cls的cache" style="whiteSpace=wrap;html=1;fillColor=#d5e8d4;strokeColor=#82b366;rounded=1;" parent="1" vertex="1">
          <mxGeometry x="68.75" y="1370" width="120" height="60" as="geometry" />
        </mxCell>
        <mxCell id="pNtmwsAvhv5jmCJUX1sL-43" value="" style="edgeStyle=orthogonalEdgeStyle;rounded=0;orthogonalLoop=1;jettySize=auto;html=1;" parent="1" target="pNtmwsAvhv5jmCJUX1sL-42" edge="1">
          <mxGeometry relative="1" as="geometry">
            <mxPoint x="128.75" y="1570" as="sourcePoint" />
          </mxGeometry>
        </mxCell>
        <mxCell id="pNtmwsAvhv5jmCJUX1sL-82" value="YES" style="edgeLabel;html=1;align=center;verticalAlign=middle;resizable=0;points=[];" parent="pNtmwsAvhv5jmCJUX1sL-43" vertex="1" connectable="0">
          <mxGeometry x="-0.3" y="-1" relative="1" as="geometry">
            <mxPoint as="offset" />
          </mxGeometry>
        </mxCell>
        <mxCell id="pNtmwsAvhv5jmCJUX1sL-86" style="edgeStyle=orthogonalEdgeStyle;rounded=0;orthogonalLoop=1;jettySize=auto;html=1;fillColor=#6a00ff;strokeColor=#3700CC;" parent="1" source="pNtmwsAvhv5jmCJUX1sL-40" edge="1">
          <mxGeometry relative="1" as="geometry">
            <mxPoint x="320" y="1840" as="targetPoint" />
            <Array as="points">
              <mxPoint x="250" y="1840" />
            </Array>
          </mxGeometry>
        </mxCell>
        <mxCell id="pNtmwsAvhv5jmCJUX1sL-40" value="(behavior &amp;amp; LOOKUP_NIL) &amp;amp;&amp;amp; &lt;br&gt;imp == forward_imp)判断imp未找到，&lt;br&gt;并且imp == forward_imp" style="rhombus;whiteSpace=wrap;html=1;fillColor=#d5e8d4;strokeColor=#82b366;rounded=1;" parent="1" vertex="1">
          <mxGeometry x="3.75" y="1470" width="250" height="100" as="geometry" />
        </mxCell>
        <mxCell id="pNtmwsAvhv5jmCJUX1sL-42" value="return nil" style="whiteSpace=wrap;html=1;fillColor=#d5e8d4;strokeColor=#82b366;rounded=1;" parent="1" vertex="1">
          <mxGeometry x="68.75" y="1610" width="120" height="60" as="geometry" />
        </mxCell>
        <mxCell id="pNtmwsAvhv5jmCJUX1sL-52" value="" style="edgeStyle=orthogonalEdgeStyle;rounded=0;orthogonalLoop=1;jettySize=auto;html=1;" parent="1" source="pNtmwsAvhv5jmCJUX1sL-49" target="pNtmwsAvhv5jmCJUX1sL-51" edge="1">
          <mxGeometry relative="1" as="geometry" />
        </mxCell>
        <mxCell id="pNtmwsAvhv5jmCJUX1sL-55" value="父类为空" style="edgeLabel;html=1;align=center;verticalAlign=middle;resizable=0;points=[];" parent="pNtmwsAvhv5jmCJUX1sL-52" vertex="1" connectable="0">
          <mxGeometry x="-0.1487" relative="1" as="geometry">
            <mxPoint y="1" as="offset" />
          </mxGeometry>
        </mxCell>
        <mxCell id="pNtmwsAvhv5jmCJUX1sL-68" value="" style="edgeStyle=orthogonalEdgeStyle;rounded=0;orthogonalLoop=1;jettySize=auto;html=1;" parent="1" source="pNtmwsAvhv5jmCJUX1sL-49" target="pNtmwsAvhv5jmCJUX1sL-67" edge="1">
          <mxGeometry relative="1" as="geometry" />
        </mxCell>
        <mxCell id="pNtmwsAvhv5jmCJUX1sL-69" value="NO" style="edgeLabel;html=1;align=center;verticalAlign=middle;resizable=0;points=[];" parent="pNtmwsAvhv5jmCJUX1sL-68" vertex="1" connectable="0">
          <mxGeometry x="-0.1684" relative="1" as="geometry">
            <mxPoint as="offset" />
          </mxGeometry>
        </mxCell>
        <mxCell id="pNtmwsAvhv5jmCJUX1sL-49" value="curClass = curClass-&amp;gt;getSuperclass()) == nil&lt;br&gt;在本类的方法列表未查找到，将curClass赋值为父类并判断是否是否存在" style="whiteSpace=wrap;html=1;fillColor=#d5e8d4;strokeColor=#82b366;rounded=1;" parent="1" vertex="1">
          <mxGeometry x="307.5" y="1230" width="155" height="90" as="geometry" />
        </mxCell>
        <mxCell id="pNtmwsAvhv5jmCJUX1sL-54" value="" style="edgeStyle=orthogonalEdgeStyle;rounded=0;orthogonalLoop=1;jettySize=auto;html=1;" parent="1" source="pNtmwsAvhv5jmCJUX1sL-51" target="pNtmwsAvhv5jmCJUX1sL-53" edge="1">
          <mxGeometry relative="1" as="geometry" />
        </mxCell>
        <mxCell id="pNtmwsAvhv5jmCJUX1sL-51" value="imp = forward_imp;跳出循环" style="whiteSpace=wrap;html=1;fillColor=#d5e8d4;strokeColor=#82b366;rounded=1;" parent="1" vertex="1">
          <mxGeometry x="560" y="1245" width="120" height="60" as="geometry" />
        </mxCell>
        <mxCell id="pNtmwsAvhv5jmCJUX1sL-57" value="" style="edgeStyle=orthogonalEdgeStyle;rounded=0;orthogonalLoop=1;jettySize=auto;html=1;" parent="1" source="pNtmwsAvhv5jmCJUX1sL-53" target="pNtmwsAvhv5jmCJUX1sL-56" edge="1">
          <mxGeometry relative="1" as="geometry" />
        </mxCell>
        <mxCell id="pNtmwsAvhv5jmCJUX1sL-58" value="YES" style="edgeLabel;html=1;align=center;verticalAlign=middle;resizable=0;points=[];" parent="pNtmwsAvhv5jmCJUX1sL-57" vertex="1" connectable="0">
          <mxGeometry x="-0.34" y="-1" relative="1" as="geometry">
            <mxPoint y="1" as="offset" />
          </mxGeometry>
        </mxCell>
        <mxCell id="pNtmwsAvhv5jmCJUX1sL-87" style="edgeStyle=orthogonalEdgeStyle;rounded=0;orthogonalLoop=1;jettySize=auto;html=1;strokeColor=#d6b656;entryX=0.5;entryY=0;entryDx=0;entryDy=0;fillColor=#fff2cc;" parent="1" source="pNtmwsAvhv5jmCJUX1sL-53" target="pNtmwsAvhv5jmCJUX1sL-34" edge="1">
          <mxGeometry relative="1" as="geometry">
            <Array as="points">
              <mxPoint x="770" y="1425" />
              <mxPoint x="770" y="1190" />
              <mxPoint x="129" y="1190" />
            </Array>
          </mxGeometry>
        </mxCell>
        <mxCell id="pNtmwsAvhv5jmCJUX1sL-88" value="NO" style="edgeLabel;html=1;align=center;verticalAlign=middle;resizable=0;points=[];" parent="pNtmwsAvhv5jmCJUX1sL-87" vertex="1" connectable="0">
          <mxGeometry x="-0.6804" y="2" relative="1" as="geometry">
            <mxPoint as="offset" />
          </mxGeometry>
        </mxCell>
        <mxCell id="pNtmwsAvhv5jmCJUX1sL-53" value="behavior &amp;amp; LOOKUP_RESOLVER&lt;br&gt;判断是否进入动态方法决议" style="rhombus;whiteSpace=wrap;html=1;fillColor=#d5e8d4;strokeColor=#82b366;rounded=1;" parent="1" vertex="1">
          <mxGeometry x="500" y="1360" width="240" height="130" as="geometry" />
        </mxCell>
        <mxCell id="pNtmwsAvhv5jmCJUX1sL-60" value="" style="edgeStyle=orthogonalEdgeStyle;rounded=0;orthogonalLoop=1;jettySize=auto;html=1;" parent="1" source="pNtmwsAvhv5jmCJUX1sL-56" target="pNtmwsAvhv5jmCJUX1sL-59" edge="1">
          <mxGeometry relative="1" as="geometry" />
        </mxCell>
        <mxCell id="pNtmwsAvhv5jmCJUX1sL-56" value="resolveMethod_locked&lt;br&gt;进入动态方法决议流程" style="whiteSpace=wrap;html=1;fillColor=#d5e8d4;strokeColor=#82b366;rounded=1;" parent="1" vertex="1">
          <mxGeometry x="535" y="1540" width="170" height="60" as="geometry" />
        </mxCell>
        <mxCell id="pNtmwsAvhv5jmCJUX1sL-62" value="" style="edgeStyle=orthogonalEdgeStyle;rounded=0;orthogonalLoop=1;jettySize=auto;html=1;" parent="1" source="pNtmwsAvhv5jmCJUX1sL-59" target="pNtmwsAvhv5jmCJUX1sL-61" edge="1">
          <mxGeometry relative="1" as="geometry" />
        </mxCell>
        <mxCell id="pNtmwsAvhv5jmCJUX1sL-59" value="_lookUpImpTryCache&lt;br&gt;再次查找缓存和方法列表" style="whiteSpace=wrap;html=1;fillColor=#d5e8d4;strokeColor=#82b366;rounded=1;" parent="1" vertex="1">
          <mxGeometry x="560" y="1680" width="120" height="60" as="geometry" />
        </mxCell>
        <mxCell id="pNtmwsAvhv5jmCJUX1sL-64" value="" style="edgeStyle=orthogonalEdgeStyle;rounded=0;orthogonalLoop=1;jettySize=auto;html=1;" parent="1" source="pNtmwsAvhv5jmCJUX1sL-61" target="pNtmwsAvhv5jmCJUX1sL-63" edge="1">
          <mxGeometry relative="1" as="geometry" />
        </mxCell>
        <mxCell id="pNtmwsAvhv5jmCJUX1sL-61" value="imp = cache_getImp" style="whiteSpace=wrap;html=1;fillColor=#d5e8d4;strokeColor=#82b366;rounded=1;" parent="1" vertex="1">
          <mxGeometry x="710" y="1680" width="120" height="60" as="geometry" />
        </mxCell>
        <mxCell id="pNtmwsAvhv5jmCJUX1sL-65" style="edgeStyle=orthogonalEdgeStyle;rounded=0;orthogonalLoop=1;jettySize=auto;html=1;" parent="1" source="pNtmwsAvhv5jmCJUX1sL-63" edge="1">
          <mxGeometry relative="1" as="geometry">
            <mxPoint x="460" y="250" as="targetPoint" />
            <Array as="points">
              <mxPoint x="880" y="1840" />
              <mxPoint x="880" y="250" />
            </Array>
          </mxGeometry>
        </mxCell>
        <mxCell id="pNtmwsAvhv5jmCJUX1sL-66" value="YES" style="edgeLabel;html=1;align=center;verticalAlign=middle;resizable=0;points=[];" parent="pNtmwsAvhv5jmCJUX1sL-65" vertex="1" connectable="0">
          <mxGeometry x="-0.4165" relative="1" as="geometry">
            <mxPoint y="1" as="offset" />
          </mxGeometry>
        </mxCell>
        <mxCell id="pNtmwsAvhv5jmCJUX1sL-84" value="" style="edgeStyle=orthogonalEdgeStyle;rounded=0;orthogonalLoop=1;jettySize=auto;html=1;" parent="1" source="pNtmwsAvhv5jmCJUX1sL-63" target="pNtmwsAvhv5jmCJUX1sL-83" edge="1">
          <mxGeometry relative="1" as="geometry" />
        </mxCell>
        <mxCell id="pNtmwsAvhv5jmCJUX1sL-85" value="NO" style="edgeLabel;html=1;align=center;verticalAlign=middle;resizable=0;points=[];" parent="pNtmwsAvhv5jmCJUX1sL-84" vertex="1" connectable="0">
          <mxGeometry x="-0.0923" y="-3" relative="1" as="geometry">
            <mxPoint as="offset" />
          </mxGeometry>
        </mxCell>
        <mxCell id="pNtmwsAvhv5jmCJUX1sL-63" value="imp == NULL&lt;br&gt;判断是否存在缓存" style="rhombus;whiteSpace=wrap;html=1;fillColor=#d5e8d4;strokeColor=#82b366;rounded=1;" parent="1" vertex="1">
          <mxGeometry x="705" y="1800" width="130" height="80" as="geometry" />
        </mxCell>
        <mxCell id="pNtmwsAvhv5jmCJUX1sL-73" value="" style="edgeStyle=orthogonalEdgeStyle;rounded=0;orthogonalLoop=1;jettySize=auto;html=1;" parent="1" source="pNtmwsAvhv5jmCJUX1sL-67" target="pNtmwsAvhv5jmCJUX1sL-72" edge="1">
          <mxGeometry relative="1" as="geometry" />
        </mxCell>
        <mxCell id="pNtmwsAvhv5jmCJUX1sL-67" value="imp = cache_getImp&lt;br&gt;查找父类的缓存" style="whiteSpace=wrap;html=1;fillColor=#d5e8d4;strokeColor=#82b366;rounded=1;" parent="1" vertex="1">
          <mxGeometry x="325" y="1370" width="120" height="60" as="geometry" />
        </mxCell>
        <mxCell id="pNtmwsAvhv5jmCJUX1sL-74" style="edgeStyle=orthogonalEdgeStyle;rounded=0;orthogonalLoop=1;jettySize=auto;html=1;entryX=0;entryY=0.5;entryDx=0;entryDy=0;" parent="1" source="pNtmwsAvhv5jmCJUX1sL-72" target="pNtmwsAvhv5jmCJUX1sL-53" edge="1">
          <mxGeometry relative="1" as="geometry" />
        </mxCell>
        <mxCell id="pNtmwsAvhv5jmCJUX1sL-75" value="YES" style="edgeLabel;html=1;align=center;verticalAlign=middle;resizable=0;points=[];" parent="pNtmwsAvhv5jmCJUX1sL-74" vertex="1" connectable="0">
          <mxGeometry x="0.071" relative="1" as="geometry">
            <mxPoint as="offset" />
          </mxGeometry>
        </mxCell>
        <mxCell id="pNtmwsAvhv5jmCJUX1sL-77" value="" style="edgeStyle=orthogonalEdgeStyle;rounded=0;orthogonalLoop=1;jettySize=auto;html=1;" parent="1" source="pNtmwsAvhv5jmCJUX1sL-72" target="pNtmwsAvhv5jmCJUX1sL-76" edge="1">
          <mxGeometry relative="1" as="geometry" />
        </mxCell>
        <mxCell id="pNtmwsAvhv5jmCJUX1sL-72" value="imp == forward_imp" style="rhombus;whiteSpace=wrap;html=1;fillColor=#d5e8d4;strokeColor=#82b366;rounded=1;" parent="1" vertex="1">
          <mxGeometry x="310" y="1500" width="150" height="80" as="geometry" />
        </mxCell>
        <mxCell id="pNtmwsAvhv5jmCJUX1sL-78" style="edgeStyle=orthogonalEdgeStyle;rounded=0;orthogonalLoop=1;jettySize=auto;html=1;entryX=1;entryY=0.5;entryDx=0;entryDy=0;strokeColor=#FF9999;" parent="1" source="pNtmwsAvhv5jmCJUX1sL-76" target="pNtmwsAvhv5jmCJUX1sL-31" edge="1">
          <mxGeometry relative="1" as="geometry">
            <Array as="points">
              <mxPoint x="280" y="1700" />
              <mxPoint x="280" y="1129" />
            </Array>
          </mxGeometry>
        </mxCell>
        <mxCell id="pNtmwsAvhv5jmCJUX1sL-79" value="YES" style="edgeLabel;html=1;align=center;verticalAlign=middle;resizable=0;points=[];" parent="pNtmwsAvhv5jmCJUX1sL-78" vertex="1" connectable="0">
          <mxGeometry x="-0.1419" y="2" relative="1" as="geometry">
            <mxPoint as="offset" />
          </mxGeometry>
        </mxCell>
        <mxCell id="pNtmwsAvhv5jmCJUX1sL-80" style="edgeStyle=orthogonalEdgeStyle;rounded=0;orthogonalLoop=1;jettySize=auto;html=1;entryX=0;entryY=0.5;entryDx=0;entryDy=0;" parent="1" source="pNtmwsAvhv5jmCJUX1sL-76" target="pNtmwsAvhv5jmCJUX1sL-17" edge="1">
          <mxGeometry relative="1" as="geometry">
            <Array as="points">
              <mxPoint x="385" y="1750" />
              <mxPoint x="-130" y="1750" />
              <mxPoint x="-130" y="845" />
            </Array>
          </mxGeometry>
        </mxCell>
        <mxCell id="pNtmwsAvhv5jmCJUX1sL-81" value="NO 重新进入循环" style="edgeLabel;html=1;align=center;verticalAlign=middle;resizable=0;points=[];" parent="pNtmwsAvhv5jmCJUX1sL-80" vertex="1" connectable="0">
          <mxGeometry x="-0.6417" y="-2" relative="1" as="geometry">
            <mxPoint as="offset" />
          </mxGeometry>
        </mxCell>
        <mxCell id="pNtmwsAvhv5jmCJUX1sL-76" value="imp 是否存在" style="rhombus;whiteSpace=wrap;html=1;fillColor=#d5e8d4;strokeColor=#82b366;rounded=1;" parent="1" vertex="1">
          <mxGeometry x="310" y="1660" width="150" height="80" as="geometry" />
        </mxCell>
        <mxCell id="pNtmwsAvhv5jmCJUX1sL-83" value="return imp" style="whiteSpace=wrap;html=1;fillColor=#d5e8d4;strokeColor=#82b366;rounded=1;" parent="1" vertex="1">
          <mxGeometry x="325" y="1810" width="120" height="60" as="geometry" />
        </mxCell>
      </root>
    </mxGraphModel>
  </diagram>
</mxfile>
